# xmcd CD database file
#
# Track frame offsets:
#	150
#	19265
#	32065
#
# Disc length: 630 seconds
#
# Revision: 2
# Processed by: cddbd v1.5.2PL0 Copyright (c) Steve Scherf et al.
# Submitted via: CDex 1.70beta2
#
DISCID=1c027403
DTITLE=Perfume - Fan Service -Prima Box- DISC-1　スウィートドーナッツ
DYEAR=2008
DGENRE=Techno
TTITLE0=スウィートドーナッツ
TTITLE1=シークレットメッセージ
TTITLE2=ジェニーはご機嫌ななめ
EXTD=YEAR: 2008
EXTT0=
EXTT1=
EXTT2=
PLAYORDER=
